PathFileType	4	(X/Y/Z)	C:\Users\WrightLab\Desktop\Jo\P5V22.trc
DataRate	CameraRate	NumFrames	NumMarkers	Units	OrigDataRate	OrigDataStartFrame	OrigNumFrames
100.00	100.00	      21	19	mm	100.00	276	      1103
Frame#	Time	Headset_Front			Headset_Back			Headset_Left			Headset_Right			Left_Shoulder			Right_Shoulder			Sternum			C7			Left Elbow			Right Elbow			Left Wrist			Right Wrist			Left ASIS			Right ASIS			S2			Left Knee			Right Knee			Left Ankle			Right Ankle			
		X1	Y1	Z1	X2	Y2	Z2	X3	Y3	Z3	X4	Y4	Z4	X5	Y5	Z5	X6	Y6	Z6	X7	Y7	Z7	X8	Y8	Z8	X9	Y9	Z9	X10	Y10	Z10	X11	Y11	Z11	X12	Y12	Z12	X13	Y13	Z13	X14	Y14	Z14	X15	Y15	Z15	X16	Y16	Z16	X17	Y17	Z17	X18	Y18	Z18	X19	Y19	Z19	

276	2.750																												-550.90350	1184.38171	-1180.52930				-458.98453	1038.97180	-1019.75305	-109.03214	900.53278	-1099.02551	-387.80130	928.34814	-1065.54858				-57.72920	482.30930	-1148.25671	-429.32056	470.69095	-1104.42883				-404.62198	72.51800	-1228.73132	
277	2.760																												-550.93488	1184.29126	-1180.52808				-458.47836	1039.07947	-1019.51550	-109.00826	900.51996	-1099.00854	-387.34381	928.55035	-1066.35388				-57.72998	482.30243	-1148.25500	-429.25204	470.69324	-1104.39868				-404.61438	72.51535	-1228.69397	
278	2.770																												-550.89728	1184.26770	-1180.53711				-458.44086	1039.08240	-1019.49774	-108.95750	900.51837	-1098.97363	-387.10980	928.76074	-1066.49866				-57.36723	482.35168	-1147.89856	-429.20807	470.69498	-1104.37939				-404.63107	72.49144	-1228.76868	
279	2.780																												-550.88794	1184.25964	-1180.54102				-458.08740	1038.97546	-1019.31067	-108.90684	900.54651	-1098.93982	-387.93231	928.15564	-1065.30115				-57.32598	482.34912	-1147.88000	-429.15405	470.69547	-1104.35547				-404.62640	72.50576	-1228.74963	
280	2.790																												-550.86169	1184.26538	-1180.53235				-458.07632	1038.98608	-1019.30640	-108.82311	900.57465	-1098.88330	-387.09811	928.69586	-1065.83862				-57.20509	482.52692	-1147.65076	-429.13016	470.70349	-1104.34595				-404.60794	72.54321	-1228.66956	
281	2.800																												-550.79456	1184.36853	-1180.52014				-457.66013	1038.68726	-1019.07104	-108.80533	900.59625	-1098.87195	-387.59885	928.85071	-1065.96899				-57.14992	482.53583	-1147.62964	-429.10162	470.69611	-1104.33228				-404.64105	72.50431	-1228.81982	
282	2.810																												-550.73810	1184.41760	-1180.41895				-457.94971	1039.03796	-1019.06903	-108.70791	900.59845	-1098.80505	-387.67889	928.49512	-1064.88953				-57.31691	482.21515	-1147.24780	-429.24551	470.51459	-1104.52576				-404.62057	72.51395	-1228.72351	
283	2.820																												-550.72064	1184.43237	-1180.40527				-457.48550	1038.37305	-1019.01093	-108.68633	900.60413	-1098.79041	-387.09811	928.69586	-1065.83862				-57.03263	482.56216	-1147.58667	-429.05597	470.69461	-1104.31177				-404.62143	72.52535	-1228.73035	
284	2.830																												-550.56720	1184.59875	-1180.55420				-457.67902	1038.64172	-1019.42126	-108.61820	900.62451	-1098.74438	-387.67889	928.49512	-1064.88953				-56.96802	482.57755	-1147.56323	-429.04590	470.68967	-1104.30664				-404.59586	72.56514	-1228.61646	
285	2.840																												-550.70892	1184.45667	-1180.38696				-457.78357	1039.18445	-1019.14722	-108.59155	900.62122	-1098.72583	-387.02023	927.89899	-1064.76489				-56.82492	482.48404	-1147.59607	-429.06924	470.67896	-1104.31567				-404.60239	72.55970	-1228.64673	
286	2.850																												-550.53754	1184.61536	-1180.54089				-456.76410	1038.36340	-1019.06018	-108.59253	900.63251	-1098.72693	-386.80258	928.44696	-1065.74231				-56.41714	482.69797	-1147.57520	-428.98672	470.37772	-1103.49255				-404.61484	72.54280	-1228.70264	
287	2.860																												-550.63092	1184.56104	-1180.29944				-456.84772	1038.28308	-1019.29523	-108.53139	900.64984	-1098.68555	-387.02023	927.89899	-1064.76489				-56.39990	482.70328	-1147.56934	-428.99722	470.77631	-1104.10400				-404.62857	72.51098	-1228.76123	
288	2.870																												-550.53119	1184.73975	-1180.27832				-456.71793	1038.87073	-1019.77496	-108.55345	900.62524	-1098.69983	-386.88443	928.08203	-1064.56873				-56.37835	482.69913	-1147.55884	-429.02972	470.77258	-1104.11792				-404.60391	72.56194	-1228.65454	
289	2.880																												-550.19470	1184.63000	-1180.33630				-456.69250	1038.32690	-1019.07373	-108.54935	900.62195	-1098.69690	-386.88443	928.08203	-1064.56873				-56.61064	482.34879	-1147.19666	-429.23068	470.18738	-1103.41675				-404.59515	72.56226	-1228.61243	
290	2.890																												-550.20184	1184.63733	-1180.33923				-456.38812	1037.97205	-1019.03424	-107.87238	900.81494	-1098.45654	-386.22186	928.16895	-1065.46448				-56.41789	482.31509	-1147.04773	-429.23328	470.60220	-1104.02673				-404.60889	72.56459	-1228.67920	
291	2.900																												-550.59583	1184.64429	-1180.25330				-456.50342	1038.29053	-1019.25092	-108.51206	900.64624	-1098.67212	-386.88443	928.08203	-1064.56873				-56.41190	482.30420	-1147.04199	-429.25140	470.59195	-1104.03357				-404.63797	72.51025	-1228.80640	
292	2.910																												-550.36627	1184.44519	-1180.14685				-456.57001	1038.48450	-1019.41748	-108.47921	900.64960	-1098.64966	-386.88443	928.08203	-1064.56873				-56.41174	482.28128	-1147.03516	-429.22150	470.58112	-1104.01880				-404.61789	72.52651	-1228.71350	
293	2.920																												-550.41443	1184.33801	-1180.12415				-456.35184	1037.91858	-1019.01141	-108.47398	900.66449	-1098.64673	-386.21585	928.22882	-1065.23218				-56.19570	482.30569	-1146.80359	-429.05573	470.33047	-1102.96680				-404.57935	72.61578	-1228.54895	
294	2.930																												-550.45374	1184.24951	-1180.16382				-456.45819	1037.78052	-1019.04816	-107.76977	900.88971	-1098.38892	-385.93042	927.80450	-1064.55518				-56.17866	482.32312	-1146.80139	-429.33942	470.85086	-1102.68555				-404.60791	72.53116	-1228.66650	
295	2.940																												-550.47589	1184.18689	-1180.00037				-456.43610	1037.75793	-1019.03528	-107.69742	900.90808	-1098.33984	-385.93042	927.80450	-1064.55518				-56.15928	482.33600	-1146.79675	-429.31052	470.22510	-1101.56250				-404.59540	72.58411	-1228.61877	
296	2.950																												-550.42773	1184.25378	-1179.95349				-456.68146	1037.94214	-1019.36694	-107.70457	900.90845	-1098.34473	-385.60748	928.56372	-1065.35632				-55.79216	482.37277	-1146.75720	-429.34354	470.35446	-1102.05762				-404.60800	72.56532	-1228.67505	
